<?xml version="1.0" standalone="no"?>
<!DOCTYPE svg PUBLIC "-//W3C//DTD SVG 20010904//EN"
 "http://www.w3.org/TR/2001/REC-SVG-20010904/DTD/svg10.dtd">
<svg version="1.0" xmlns="http://www.w3.org/2000/svg"
 width="500.000000pt" height="500.000000pt" viewBox="0 0 500.000000 500.000000"
 preserveAspectRatio="xMidYMid meet">
<metadata>
Created by potrace 1.16, written by Peter Selinger 2001-2019
</metadata>
<g transform="translate(0.000000,500.000000) scale(0.100000,-0.100000)"
fill="#000000" stroke="none">
<path d="M0 2500 l0 -2500 2500 0 2500 0 0 2500 0 2500 -2500 0 -2500 0 0
-2500z m2126 1371 c23 -10 54 -36 70 -56 24 -32 29 -47 28 -94 0 -77 -28 -126
-121 -214 -203 -190 -376 -372 -451 -471 -130 -175 -224 -380 -269 -589 -27
-121 -24 -491 4 -635 11 -56 16 -99 12 -95 -13 14 -87 257 -109 359 -77 358
-69 701 25 982 82 245 202 440 400 650 86 92 144 136 214 163 60 24 145 24
197 0z m1315 -23 c106 -49 159 -120 159 -212 0 -56 -10 -78 -58 -129 -62 -64
-113 -77 -432 -108 -249 -24 -531 -91 -712 -169 -178 -78 -318 -170 -457 -305
-151 -146 -261 -295 -372 -509 -38 -72 -69 -128 -69 -125 0 14 89 268 120 344
75 178 197 392 303 530 200 259 464 459 765 581 98 40 309 97 422 114 41 7 82
13 90 15 8 2 54 3 101 1 66 -3 99 -9 140 -28z m264 -632 c214 -39 411 -104
604 -198 120 -59 202 -132 245 -217 88 -173 -3 -341 -186 -341 -71 0 -143 27
-298 110 -695 373 -1202 446 -1765 253 -114 -39 -348 -151 -445 -212 l-65 -41
50 45 c141 129 393 294 620 405 219 108 410 169 635 204 127 20 478 15 605 -8z
m-2672 -60 c48 -20 84 -68 98 -132 11 -49 10 -77 -5 -193 -24 -177 -32 -451
-17 -577 30 -251 110 -455 255 -647 52 -69 211 -230 306 -311 l45 -38 -50 28
c-179 97 -348 228 -498 384 -309 322 -441 691 -416 1160 10 176 56 271 154
316 58 27 83 29 128 10z m1393 -725 c49 -22 80 -60 94 -113 7 -24 10 -176 8
-421 l-3 -382 -24 -42 c-16 -29 -39 -50 -66 -63 -39 -19 -59 -20 -241 -18
l-199 3 -3 515 c-1 283 0 521 3 528 3 9 52 12 197 12 166 0 199 -3 234 -19z
m704 -7 c19 -11 45 -38 57 -60 20 -34 23 -54 23 -152 l0 -113 -87 3 -88 3 -3
70 c-2 38 -8 75 -14 82 -14 17 -149 18 -166 1 -17 -17 -17 -659 0 -676 16 -16
150 -16 166 0 8 8 12 47 12 110 l0 98 -40 0 c-47 0 -53 12 -48 110 l3 65 133
3 133 3 -3 -240 c-3 -224 -4 -241 -24 -267 -48 -65 -61 -69 -235 -72 -190 -4
-228 7 -270 81 l-24 42 -3 360 c-2 198 -1 383 3 412 8 67 39 112 95 141 42 22
55 23 195 20 130 -3 155 -6 185 -24z m-2517 -375 c55 -15 97 -57 178 -177 208
-307 402 -491 632 -597 150 -69 332 -104 557 -106 149 -1 142 -7 -42 -34 -132
-20 -457 -20 -571 0 -309 54 -587 218 -797 472 -103 124 -132 179 -138 263 -7
109 42 179 133 189 6 0 27 -4 48 -10z"/>
<path d="M2180 1920 l0 -350 75 0 c64 0 76 3 85 20 7 14 10 126 8 340 -3 272
-5 322 -18 330 -8 5 -45 10 -82 10 l-68 0 0 -350z"/>
</g>
</svg>
