<?xml version="1.0" standalone="no"?>
<!DOCTYPE svg PUBLIC "-//W3C//DTD SVG 20010904//EN"
 "http://www.w3.org/TR/2001/REC-SVG-20010904/DTD/svg10.dtd">
<svg version="1.0" xmlns="http://www.w3.org/2000/svg"
 width="320.000000pt" height="117.000000pt" viewBox="0 0 320.000000 117.000000"
 preserveAspectRatio="xMidYMid meet">
<metadata>
Created by potrace 1.16, written by Peter Selinger 2001-2019
</metadata>
<g transform="translate(0.000000,117.000000) scale(0.100000,-0.100000)"
fill="#000000" stroke="none">
<path d="M825 1092 c-59 -36 -144 -141 -187 -230 -23 -48 -41 -95 -41 -104 1
-10 -1 -18 -5 -18 -15 0 -13 -188 2 -270 9 -46 17 -85 19 -86 1 -1 2 35 3 80
2 116 66 308 97 290 7 -4 9 -4 5 1 -10 10 6 39 49 86 19 21 40 36 46 32 5 -3
7 -1 4 4 -8 13 27 46 38 36 4 -5 5 -3 2 3 -3 6 14 29 38 52 25 23 45 49 45 57
0 9 5 13 10 10 6 -3 10 1 10 10 0 9 -4 13 -10 10 -5 -3 -10 0 -10 8 0 21 -33
47 -61 47 -13 0 -37 -8 -54 -18z"/>
<path d="M1308 1100 c-15 -4 -45 -11 -65 -14 -61 -9 -167 -52 -230 -93 -32
-21 -65 -38 -73 -38 -8 0 -14 -4 -12 -8 2 -4 -21 -34 -50 -67 -30 -32 -72 -92
-95 -132 -42 -73 -77 -148 -69 -148 2 0 25 29 50 64 113 159 299 255 504 260
23 1 42 5 42 9 0 5 15 7 33 6 42 -3 102 23 117 51 33 62 -69 136 -152 110z"/>
<path d="M450 827 c-48 -39 -52 -52 -51 -164 0 -83 5 -122 21 -166 11 -32 17
-63 14 -69 -4 -6 -3 -8 3 -5 5 3 20 -13 33 -36 30 -53 121 -150 180 -190 l45
-31 -49 54 c-54 61 -90 129 -111 210 -15 60 -18 218 -5 289 9 51 -3 97 -30
111 -24 13 -32 12 -50 -3z"/>
<path d="M298 409 c-29 -16 -24 -85 9 -128 100 -135 257 -211 433 -210 63 0
71 2 50 11 -14 6 -29 10 -33 9 -38 -8 -215 78 -202 99 3 5 0 7 -8 4 -18 -7
-90 73 -81 89 4 7 4 9 -1 5 -9 -9 -40 24 -61 64 -13 26 -64 68 -81 68 -4 0
-16 -5 -25 -11z"/>
<path d="M2154 407 c-3 -8 -4 -54 -2 -103 l3 -89 38 -3 37 -3 0 105 0 106 -35
0 c-20 0 -38 -6 -41 -13z"/>
<path d="M2335 411 c2 -1 -8 -13 -23 -26 -21 -18 -27 -34 -32 -83 -3 -33 -3
-59 1 -56 3 2 14 -5 24 -16 15 -17 31 -20 95 -20 90 0 103 9 98 67 -3 35 -5
38 -33 38 -27 0 -30 -3 -28 -28 1 -22 -2 -28 -15 -25 -13 3 -17 14 -17 53 l0
50 43 3 c33 3 42 7 42 22 0 16 -10 19 -79 22 -44 2 -78 1 -76 -1z"/>
<path d="M920 311 l0 -100 89 -3 c49 -2 88 -1 86 1 -2 2 5 11 17 21 16 12 22
31 26 73 4 51 2 58 -23 81 -25 24 -36 26 -111 26 l-84 0 0 -99z"/>
<path d="M1737 373 c-35 -25 -49 -53 -27 -53 6 0 10 -17 10 -38 0 -56 24 -74
91 -70 41 2 55 7 57 20 2 12 -4 16 -30 15 -31 -2 -32 0 -33 35 0 33 3 38 23
38 13 0 22 6 22 15 0 9 -9 15 -24 15 -18 0 -26 6 -28 22 -4 31 -18 31 -61 1z"/>
<path d="M1348 340 c-14 -10 -27 -17 -30 -15 -2 3 -1 -19 2 -47 4 -29 12 -54
19 -56 6 -2 9 -7 6 -11 -5 -9 66 2 83 13 14 8 16 -13 3 -33 -6 -10 -22 -12
-55 -9 -34 4 -46 2 -46 -8 0 -19 72 -38 115 -30 62 12 75 34 75 126 0 91 -9
102 -64 82 -20 -8 -34 -8 -40 -2 -15 15 -41 12 -68 -10z"/>
<path d="M1936 341 c-10 -11 -13 -21 -7 -25 5 -4 12 -2 16 4 3 5 19 10 36 10
22 0 29 -5 29 -20 0 -16 -7 -20 -31 -20 -43 0 -69 -17 -69 -45 0 -32 30 -48
66 -35 18 7 30 7 40 0 7 -6 28 -10 46 -8 32 3 33 4 36 55 3 45 -1 56 -22 78
-32 32 -113 36 -140 6z"/>
<path d="M2574 336 c-37 -31 -39 -90 -5 -117 36 -30 125 -26 156 6 24 24 33
68 17 91 -33 48 -123 59 -168 20z"/>
</g>
</svg>
